<svg width="24" height="24" viewBox="0 0 24 24" fill="none" xmlns="http://www.w3.org/2000/svg">
<path d="M9 15.0002L14 10.0002" stroke="white" stroke-width="2" stroke-linecap="square" stroke-linejoin="round"/>
<path d="M11 9.02935L15.0587 9.02936L15.0584 13.0002" stroke="white" stroke-width="2" stroke-linecap="square"/>
<path d="M0.72103 9.75618C1.16482 7.52538 2.26017 5.47628 3.86855 3.868C6.02519 1.7115 8.95014 0.5 12 0.5C15.0499 0.5 17.9748 1.7115 20.1315 3.868C21.7398 5.47628 22.8352 7.52538 23.279 9.75618C23.7228 11.987 23.4951 14.2993 22.6247 16.4007C21.7543 18.5021 20.2803 20.2982 18.3891 21.5618C16.498 22.8255 14.2745 23.5 12 23.5C9.72548 23.5 7.50205 22.8255 5.61087 21.5618C3.71968 20.2982 2.2457 18.5021 1.37532 16.4007C0.504932 14.2993 0.277239 11.987 0.72103 9.75618Z" stroke="white"/>
</svg>
