<svg width="139" height="26" viewBox="0 0 139 26" fill="none" xmlns="http://www.w3.org/2000/svg">
<g opacity="0.8">
<path d="M60.6664 4H64.5745L61.2214 18.1909L60.9308 19.4208H62.1946H71.4591L70.9799 21.4118H56.5364L60.6664 4ZM98.8836 21.4118H94.9431L99.0951 4H114.761L114.296 5.99095H103.367H102.58L102.395 6.75556L101.363 11.018L101.064 12.2534H102.335H110.632L110.166 14.2443H101.402H100.615L100.43 15.0095L98.8836 21.4118ZM117.729 4H135.018L134.564 5.99095H128.633H127.84L127.659 6.76314L124.232 21.4118H120.435L123.756 7.21876L124.043 5.99095H122.782H117.275L117.729 4ZM94.4929 13.001L94.4926 13.0023C93.298 18.1689 88.8196 22 82.2456 22C78.7313 22 76.4157 20.9712 75.1189 19.4444C73.8301 17.9269 73.3773 15.7161 74.0128 12.9712L74.0138 12.9667C75.178 7.82992 79.5909 4 86.228 4C89.7079 4 92.036 5.02751 93.3506 6.55683C94.6555 8.07475 95.1261 10.2787 94.4929 13.001ZM77.6712 13.0029L77.6707 13.0052C77.2901 14.6737 77.19 16.434 77.9257 17.8197C78.7208 19.3173 80.3042 20.0643 82.5324 20.0643C84.9239 20.0643 86.8022 19.2664 88.1913 17.9311C89.5603 16.6151 90.389 14.8415 90.8327 12.9772L90.8344 12.9698C91.2165 11.3082 91.3069 9.5547 90.5658 8.17322C89.7672 6.68439 88.1885 5.93574 85.9731 5.93574C83.5681 5.93574 81.6816 6.73196 80.2913 8.06453C78.9204 9.37846 78.099 11.1479 77.6712 13.0029Z" fill="white" stroke="white" stroke-width="2"/>
<path fill-rule="evenodd" clip-rule="evenodd" d="M44.6608 15.3462C45.7229 17.7726 46.2695 20.3733 46.2695 22.9997H41.0634C41.0525 20.786 40.5865 18.5952 39.6911 16.5495C38.785 14.4793 37.4568 12.5983 35.7825 11.0138C34.1082 9.42935 32.1205 8.17248 29.9329 7.31497C27.7453 6.45747 25.4007 6.01611 23.0328 6.01611C20.665 6.01611 18.3204 6.45747 16.1328 7.31498C13.9452 8.17248 11.9575 9.42935 10.2832 11.0138C8.60886 12.5983 7.28073 14.4793 6.3746 16.5495C5.4792 18.5952 5.0132 20.786 5.00228 22.9997H4.00209C4.00209 20.3733 4.54873 17.7726 5.61079 15.3462C6.67286 12.9197 8.22956 10.7149 10.192 8.85778C12.1545 7.00064 14.4842 5.52747 17.0483 4.52239C19.6123 3.51731 22.3605 3 25.1358 3C27.9111 3 30.6593 3.51731 33.2233 4.52239C35.7874 5.52747 38.1172 7.00063 40.0796 8.85778C42.0421 10.7149 43.5988 12.9197 44.6608 15.3462Z" fill="white"/>
<path fill-rule="evenodd" clip-rule="evenodd" d="M37.8577 16.994C38.7421 18.8981 39.1973 20.9389 39.1973 22.9999H35.0294C35.0204 21.2625 34.6324 19.5432 33.8867 17.9377C33.1322 16.3131 32.0262 14.8371 30.632 13.5937C29.2378 12.3503 27.5827 11.364 25.7611 10.6911C23.9395 10.0182 21.9871 9.67188 20.0154 9.67188C18.0437 9.67188 16.0913 10.0182 14.2697 10.6911C12.4481 11.364 10.7929 12.3503 9.39874 13.5937C8.00454 14.8371 6.89861 16.3131 6.14407 17.9377C5.39839 19.5432 5.01035 21.2625 5.00134 22.9999H4.00118C4.00118 20.9389 4.45637 18.8981 5.34075 16.994C6.22514 15.0899 7.5214 13.3597 9.15553 11.9024C10.7897 10.4451 12.7297 9.28902 14.8647 8.50032C16.9998 7.71161 19.2882 7.30566 21.5992 7.30566C23.9102 7.30566 26.1986 7.71161 28.3337 8.50031C30.4688 9.28902 32.4088 10.4451 34.0429 11.9024C35.677 13.3597 36.9733 15.0899 37.8577 16.994Z" fill="white"/>
<path fill-rule="evenodd" clip-rule="evenodd" d="M32.1367 18.4291C32.8717 19.8782 33.25 21.4314 33.25 22.9999H29.9553C29.9478 21.6777 29.6253 20.3691 29.0056 19.1472C28.3785 17.9109 27.4595 16.7875 26.3008 15.8412C25.1422 14.8949 23.7666 14.1443 22.2528 13.6322C20.7389 13.12 19.1164 12.8564 17.4778 12.8564C15.8393 12.8564 14.2167 13.12 12.7029 13.6322C11.189 14.1443 9.81353 14.8949 8.65488 15.8412C7.49623 16.7875 6.57714 17.9109 5.95008 19.1472C5.33038 20.3691 5.0079 21.6777 5.00042 22.9999H4.00029C4.00029 21.4314 4.37857 19.8782 5.11354 18.4291C5.84851 16.9799 6.92577 15.6632 8.28381 14.5541C9.64185 13.4449 11.2541 12.5651 13.0285 11.9649C14.8028 11.3646 16.7046 11.0557 18.6251 11.0557C20.5457 11.0557 22.4475 11.3646 24.2218 11.9649C25.9962 12.5651 27.6084 13.4449 28.9665 14.5541C30.3245 15.6632 31.4018 16.9799 32.1367 18.4291Z" fill="white"/>
<path fill-rule="evenodd" clip-rule="evenodd" d="M27.1919 19.625C27.7976 20.695 28.1094 21.8418 28.1094 23H25.5698C25.5636 22.0237 25.2978 21.0574 24.7871 20.1552C24.2703 19.2423 23.5128 18.4128 22.5578 17.7141C21.6029 17.0154 20.4692 16.4612 19.2216 16.083C17.9739 15.7049 16.6366 15.5103 15.2862 15.5103C13.9357 15.5103 12.5984 15.7049 11.3508 16.083C10.1031 16.4612 8.96942 17.0154 8.01449 17.7141C7.05956 18.4128 6.30207 19.2423 5.78527 20.1552C5.27451 21.0574 5.00873 22.0237 5.00258 23H4.00247C4.00247 21.8418 4.31424 20.695 4.91998 19.625C5.52572 18.555 6.41358 17.5827 7.53284 16.7638C8.65211 15.9448 9.98087 15.2952 11.4433 14.852C12.9057 14.4088 14.473 14.1807 16.0559 14.1807C17.6388 14.1807 19.2062 14.4088 20.6686 14.852C22.131 15.2952 23.4597 15.9448 24.579 16.7638C25.6983 17.5827 26.5861 18.555 27.1919 19.625Z" fill="white"/>
</g>
</svg>
